# xmcd CD database file
# Copyright (C) 1995-1998 Ti Kan
#
# Track frame offsets:
#	150
#	24438
#	41918
#	66110
#	100823
#	112918
#	132719
#	151027
#	169605
#	196800
#	221885
#	242222
#
# Disc length: 3490 seconds
#
# Revision: 1
# Processed by: cddbd v1.4b42PL1 Copyright (c) Steve Scherf et al.
# Submitted via: CDex 1.30Release
#
DISCID=a40da00c
DTITLE=Robert Tree Cody and Xavier Quijas Yxayotl - Crossroads
DYEAR=1900
DGENRE=Native American
TTITLE0=Dance of the Sunset Feathers
TTITLE1=Waterbird
TTITLE2=Crossroads
TTITLE3=Calling of the Spirits
TTITLE4=Paso de Camino
TTITLE5=Yumari
TTITLE6=Procession of the Jaguar Kings
TTITLE7=Gathering of the Sacred Fires
TTITLE8=Dance of the Bow Hunters
TTITLE9=Love Song
TTITLE10=Remembrance
TTITLE11=Festival of the Deer
EXTD=ID3G:  64
EXTT0=
EXTT1=
EXTT2=
EXTT3=
EXTT4=
EXTT5=
EXTT6=
EXTT7=
EXTT8=
EXTT9=
EXTT10=
EXTT11=
PLAYORDER=
